<?xml version="1.0" encoding="utf-8"?>
<svg height="32" width="32" viewBox="0 0 32 32" xmlns="http://www.w3.org/2000/svg">
    <path fill="#ff3333" d="M 16 0 C 24.8365559973 0 32 7.16344400271 32 16 C 32 24.8365559973 24.8365559973 32 16 32 C 7.16344400271 32 0 24.8365559973 0 16 C 0 7.16344400271 7.16344400271 0 16 0 Z" />
    <path fill="#ffffff" d="M14.3312 8C13.8675 8 13.4587 8.30415 13.3255 8.74828L13.184 9.21992C12.2351 9.33444 11.2862 9.50685 10.3373 9.73714C9.55254 9.92758 9.00001 10.6302 9 11.4378V19.1985C9 20.5764 9.99529 21.7218 11.3062 21.9551L12.2261 21.2191C12.4034 21.0773 12.6237 21 12.8508 21H19.1492C19.3763 21 19.5966 21.0773 19.7739 21.2191L20.6938 21.9551C22.0047 21.7218 23 20.5764 23 19.1985V11.4378C23 10.6302 22.4475 9.92754 21.6627 9.73713C20.7138 9.50684 19.7649 9.33444 18.816 9.21992L18.6745 8.74829C18.5412 8.30415 18.1324 8 17.6688 8H14.3312ZM21.1351 15.16C21.0593 15.6816 20.574 16 20 16H12C11.426 16 10.9407 15.6816 10.8649 15.16L10.4101 12.516C10.3314 11.9747 10.7185 11.4683 11.3004 11.3516C12.867 11.0372 14.4335 10.88 16 10.88C17.5665 10.88 19.133 11.0372 20.6996 11.3516C21.2815 11.4683 21.6686 11.9746 21.5899 12.516L21.1351 15.16ZM20 19C20.5523 19 21 18.5523 21 18C21 17.4477 20.5523 17 20 17C19.4477 17 19 17.4477 19 18C19 18.5523 19.4477 19 20 19ZM12 19C12.5523 19 13 18.5523 13 18C13 17.4477 12.5523 17 12 17C11.4477 17 11 17.4477 11 18C11 18.5523 11.4477 19 12 19ZM15 9C14.7239 9 14.5 9.22386 14.5 9.5C14.5 9.77614 14.7239 10 15 10H17C17.2761 10 17.5 9.77614 17.5 9.5C17.5 9.22386 17.2761 9 17 9H15Z" fill-rule="evenodd" />
    <path fill="#ffffff" d="M16.0003 24H20.2702C20.4407 24 20.5318 23.8003 20.4213 23.6704L19.2998 22.352C19.1098 22.1287 18.8313 22 18.5381 22H13.4625C13.1692 22 12.8908 22.1287 12.7008 22.352L11.5792 23.6704C11.4687 23.8003 11.56 24 11.7305 24H16.0003Z" />
</svg>